<?xml version="1.0" encoding="UTF-8" standalone="no"?>
<!-- Created with Inkscape (http://www.inkscape.org/) -->

<svg
   width="67.73333mm"
   height="67.73333mm"
   viewBox="0 0 67.73333 67.733328"
   version="1.1"
   id="svg1670"
   xml:space="preserve"
   inkscape:version="1.2.2 (b0a8486541, 2022-12-01)"
   sodipodi:docname="icon.svg"
   inkscape:export-filename="icon_white.png"
   inkscape:export-xdpi="96"
   inkscape:export-ydpi="96"
   xmlns:inkscape="http://www.inkscape.org/namespaces/inkscape"
   xmlns:sodipodi="http://sodipodi.sourceforge.net/DTD/sodipodi-0.dtd"
   xmlns="http://www.w3.org/2000/svg"
   xmlns:svg="http://www.w3.org/2000/svg"><sodipodi:namedview
     id="namedview1672"
     pagecolor="#000000"
     bordercolor="#666666"
     borderopacity="1.0"
     inkscape:showpageshadow="2"
     inkscape:pageopacity="0"
     inkscape:pagecheckerboard="0"
     inkscape:deskcolor="#d1d1d1"
     inkscape:document-units="mm"
     showgrid="false"
     inkscape:zoom="1.2197914"
     inkscape:cx="86.080293"
     inkscape:cy="153.3049"
     inkscape:window-width="1295"
     inkscape:window-height="700"
     inkscape:window-x="0"
     inkscape:window-y="29"
     inkscape:window-maximized="1"
     inkscape:current-layer="g355"><inkscape:grid
       type="xygrid"
       id="grid1849"
       originx="-66.425461"
       originy="-89.339255" /></sodipodi:namedview><defs
     id="defs1667"><inkscape:path-effect
       effect="bspline"
       id="path-effect1924"
       is_visible="true"
       lpeversion="1"
       weight="33.333333"
       steps="2"
       helper_size="0"
       apply_no_weight="true"
       apply_with_weight="true"
       only_selected="false" /></defs><g
     inkscape:label="Calque 1"
     inkscape:groupmode="layer"
     id="layer1"
     transform="translate(-66.425453,-89.339272)"><g
       id="g2323"
       style="stroke:#ffffff;stroke-opacity:1"><g
         id="g355"><g
           id="g467"
           transform="matrix(0.85115632,0,0,0.85115632,9.4247225,24.145644)"><g
             id="g1847"
             transform="translate(-122.64803,160.45419)"
             style="fill:#ffffff;stroke:none;stroke-opacity:1"><circle
               style="fill:#ffffff;stroke:none;stroke-width:28.4561;stroke-linecap:round;stroke-linejoin:round;stroke-dasharray:none;stroke-opacity:1;paint-order:markers stroke fill"
               id="path1279"
               cx="198.21556"
               cy="-54.235889"
               r="8.5989504" /></g><g
             id="g2311"
             transform="translate(8.4666669,-2.1166667)"
             style="fill:#ffffff;stroke:none;stroke-opacity:1"><g
               id="g1857"
               transform="translate(-7.0577033,181.23587)"
               style="fill:#ffffff;stroke:none;stroke-opacity:1"><circle
                 style="fill:#ffffff;fill-opacity:1;stroke:none;stroke-width:28.4561;stroke-linecap:round;stroke-linejoin:round;stroke-dasharray:none;stroke-opacity:1;paint-order:markers stroke fill"
                 id="circle1855"
                 cx="-136.53868"
                 cy="-54.235889"
                 r="8.5989504"
                 transform="scale(-1,1)" /></g></g><path
             style="fill:#ffffff;stroke:#ffffff;stroke-width:4.776;stroke-dasharray:none;stroke-opacity:1"
             d="m 100.07881,139.79313 c -1.916841,-1.16898 -4.254289,-7.0115 -4.311771,-10.09195 -0.375562,-20.12632 -2.227159,-31.73459 -2.772938,-31.62948 -6.930376,2.5066 2.509927,23.43192 -7.463387,31.6538 -1.865934,1.49256 -3.869706,-4.58106 -4.162723,-6.92858 -0.471032,-3.7737 -2.029168,-11.54961 -2.295156,-14.68536 -6.546728,-0.507 -4.266316,-5.92891 0.595575,-3.56124 1.775244,0.90664 2.95922,15.47998 4.389053,19.64454 1.054192,3.07046 0.983255,1.339 1.412002,1.27783 0.542062,-0.0774 2.434155,-16.83745 2.926094,-21.03557 0.750219,-6.402233 0.689555,-8.07158 2.038001,-9.565891 0.82316,-0.912181 1.5206,-1.228931 2.705961,-1.228931 1.848999,0 2.921498,1.137571 4.016779,4.260512 0.52266,1.49027 0.91426,23.92611 2.222949,30.84604 0.907241,4.79729 1.666771,7.043 2.201261,6.50851 0.56753,-0.56753 2.2614,-18.6379 2.89381,-26.2117 1.01627,-12.17106 1.81661,-13.36872 3.80672,-15.635344 0.74534,-0.848886 1.3662,-1.139925 2.43175,-1.139925 1.17529,0 1.88223,0.316109 2.67721,1.197119 1.80004,1.99484 2.59919,5.03941 3.65321,13.91795 0.85638,7.21355 0.33574,28.89235 0.95485,28.89235 0.46551,0 0.98256,-1.36248 1.95582,-5.15371 1.56103,-6.08092 3.54781,-25.49241 5.9632,-25.49241 1.1741,0 2.08622,0.41624 2.87112,1.31019 0.64665,0.7365 0.85829,1.12836 1.98227,3.67036 2.30314,5.41645 4.58296,12.07019 6.12368,12.09818 h 4.2238 v 1.85562 1.85562 l -4.87724,-0.0541 -4.05157,-3.03479 c -2.90429,-2.49994 -3.0786,-7.42287 -4.55864,-10.67078 -0.62868,-1.305 -1.21745,-2.46688 -1.3084,-2.58197 -0.34558,-0.4373 -0.64562,0.0252 -1.08405,1.6711 -0.24933,0.93597 -1.78594,20.73461 -2.12119,22.00716 -1.26082,4.78598 -2.84048,6.73772 -5.4532,6.73772 -1.23511,0 -1.94969,-0.38606 -2.63705,-1.42474 -1.21153,-1.83073 -0.71441,-23.34273 -1.58924,-30.66472 -0.81574,-6.82736 -1.01788,-8.00528 -1.77868,-10.36487 -0.6799,-2.10866 -1.14938,-1.94063 -1.79906,0.64388 -0.739,2.93981 -1.06524,2.94537 -1.78411,11.85408 -0.42586,5.27768 -1.9583,22.54062 -2.54998,24.78459 -0.6392,2.42423 -1.52562,4.00013 -2.54709,4.52837 -0.71474,0.36959 -2.24764,0.33819 -2.89964,-0.0594 z"
             id="path1942"
             sodipodi:nodetypes="csccsccscsssssssssssssssccccccccssssssssssscc" /></g></g></g></g></svg>
