<?xml version="1.0" encoding="UTF-8" standalone="no"?>
<svg
   width="256"
   height="256"
   version="1.1"
   id="svg12"
   sodipodi:docname="icon.svg"
   inkscape:export-filename="main/app_icon.png"
   inkscape:export-xdpi="48"
   inkscape:export-ydpi="48"
   inkscape:version="1.2.2 (b0a8486541, 2022-12-01)"
   xmlns:inkscape="http://www.inkscape.org/namespaces/inkscape"
   xmlns:sodipodi="http://sodipodi.sourceforge.net/DTD/sodipodi-0.dtd"
   xmlns:xlink="http://www.w3.org/1999/xlink"
   xmlns="http://www.w3.org/2000/svg"
   xmlns:svg="http://www.w3.org/2000/svg">
  <sodipodi:namedview
     id="namedview14"
     pagecolor="#ffffff"
     bordercolor="#666666"
     borderopacity="1.0"
     inkscape:showpageshadow="2"
     inkscape:pageopacity="0.0"
     inkscape:pagecheckerboard="0"
     inkscape:deskcolor="#d1d1d1"
     showgrid="false"
     inkscape:zoom="0.921875"
     inkscape:cx="126.91525"
     inkscape:cy="128"
     inkscape:window-width="1295"
     inkscape:window-height="700"
     inkscape:window-x="0"
     inkscape:window-y="29"
     inkscape:window-maximized="1"
     inkscape:current-layer="svg12" />
  <defs
     id="defs8">
    <linearGradient
       id="a">
      <stop
         offset="0"
         stop-color="#c21d3f"
         id="stop2" />
      <stop
         offset="1"
         stop-color="#aa1544"
         id="stop4" />
    </linearGradient>
    <linearGradient
       xlink:href="#a"
       id="b"
       x1="2.292"
       x2="300.708"
       y1="151.5"
       y2="151.5"
       gradientTransform="translate(-1.966 -1.966)scale(.85786)"
       gradientUnits="userSpaceOnUse" />
  </defs>
  <path
     fill="url(#b)"
     d="m 156.12853,212.14518 c -1.41546,-0.63366 -3.83464,-2.47726 -5.37595,-4.09689 -1.54131,-1.61964 -3.18625,-4.27089 -3.65542,-5.89168 -0.46917,-1.62079 -1.21412,-8.35143 -1.65549,-14.95697 -0.44133,-6.60553 -1.034,-23.20516 -1.31701,-36.88806 -0.28302,-13.6829 -0.90761,-31.05461 -1.38799,-38.6038 -0.48039,-7.54918 -1.17072,-14.028653 -1.53406,-14.398808 -0.36333,-0.370164 -1.32479,7.157568 -2.13654,16.728308 -0.81178,9.57073 -2.63173,28.98247 -4.04434,43.13719 -1.41261,14.15472 -3.11409,28.37182 -3.78104,31.59356 -0.66694,3.22174 -2.21402,8.04721 -3.43794,10.72328 -1.22392,2.67606 -3.2651,5.96164 -4.53594,7.30128 -1.27084,1.33964 -3.27571,2.92518 -4.45527,3.5234 -1.17955,0.59823 -3.41272,1.32888 -4.9626,1.62368 -1.54987,0.29479 -4.66755,0.13931 -6.92815,-0.34551 -2.80433,-0.60142 -5.1204,-1.86269 -7.289797,-3.96981 -1.748772,-1.69858 -4.525308,-5.4947 -6.170076,-8.43581 -1.644757,-2.94112 -3.91928,-8.07827 -5.054487,-11.41591 -1.135205,-3.33763 -2.454407,-8.88535 -2.931565,-12.32826 -0.477144,-3.44291 -1.112391,-15.31775 -1.411645,-26.38857 -0.299255,-11.07082 -0.842835,-20.66257 -1.207966,-21.31504 -0.367936,-0.65744 -0.89986,2.77052 -1.193264,7.68975 -0.291166,4.88183 -1.34242,11.77131 -2.336126,15.30999 -0.993695,3.53868 -2.958957,8.77971 -4.367247,11.6467 -1.408295,2.86701 -4.316531,7.22009 -6.462739,9.67354 -2.146217,2.45344 -5.002335,5.02969 -6.34691,5.72501 -1.344588,0.69531 -3.718496,1.26276 -5.275355,1.261 -1.556858,-9.9e-4 -4.06983,-0.75877 -5.584372,-1.68223 -1.514542,-0.92348 -3.731307,-3.15628 -4.926147,-4.96179 -1.194827,-1.80552 -3.292065,-6.35654 -4.660515,-10.11337 -1.368453,-3.75683 -3.311612,-12.04212 -4.318128,-18.41176 -1.00651,-6.36961 -2.229368,-13.89736 -2.717468,-16.7283 -0.887449,-5.14718 -0.887449,-5.14718 -7.91298,-5.14718 -5.945956,0 -7.771712,-0.36642 -11.881491,-2.38467 -2.67078,-1.31156 -6.2249136,-3.89993 -7.8980687,-5.75191 -1.6731596,-1.85198 -3.9263411,-5.0253 -5.007074,-7.0518 C 0.31646277,103.71807 0.00201355,101.82657 2.3075031e-5,94.979469 -0.00263852,87.545817 0.22135932,86.42588 2.5439106,82.232662 3.944355,79.704242 6.5940688,76.348272 8.4321664,74.77492 10.27026,73.20158 13.563887,71.048685 15.751326,69.990688 c 3.063112,-1.481522 5.554391,-1.934626 10.840046,-1.971573 5.261876,-0.03684 7.787964,0.378096 10.828288,1.778399 2.18096,1.004504 5.550358,3.258291 7.487556,5.008432 1.937198,1.750144 4.294029,4.430964 5.237413,5.957394 0.943383,1.526416 2.341042,5.21808 3.105931,8.203704 1.148127,4.481605 1.221074,6.29049 0.418225,10.371305 -0.784366,3.986881 -0.708405,6.573721 0.392748,13.374421 0.750861,4.63732 1.703294,9.20357 2.116518,10.14721 0.523585,1.1957 0.768899,1.31719 0.809366,0.40083 0.03188,-0.72319 1.603019,-14.37368 3.491302,-30.33443 2.569873,-21.721887 3.875296,-30.020423 5.191111,-32.999594 0.966834,-2.189021 2.992729,-5.281804 4.501992,-6.87286 1.509255,-1.591033 4.288255,-3.609251 6.175552,-4.48492 1.887301,-0.875678 4.782578,-1.598459 6.433973,-1.606186 1.651384,-0.008 4.460693,0.390888 6.242929,0.885806 1.782247,0.494942 4.573078,2.069962 6.201881,3.500064 1.628805,1.430093 4.140384,4.994958 5.581313,7.921889 1.44093,2.926943 2.97729,7.815887 3.41416,10.864343 0.43686,3.048455 1.39647,18.088882 2.13242,33.423168 0.73597,15.33428 1.57793,30.68946 1.87102,34.12262 0.29308,3.43315 0.69694,6.07805 0.89746,5.87753 0.20051,-0.20051 1.48949,-12.6604 2.86445,-27.68865 1.37494,-15.02824 2.93681,-30.798422 3.47086,-35.044844 0.53405,-4.246424 1.67634,-10.488298 2.53843,-13.870834 0.86209,-3.38255 2.39911,-7.780307 3.41561,-9.772795 1.01648,-1.992498 3.64603,-5.55339 5.84342,-7.913082 2.19737,-2.359705 5.23746,-4.814123 6.75574,-5.45426 1.51828,-0.640137 4.60657,-1.155411 6.8629,-1.145053 2.25632,0.01043 5.64985,0.72184 7.54121,1.581056 1.89134,0.859216 4.69083,2.988197 6.22109,4.731064 1.53025,1.742866 3.77729,5.132391 4.9934,7.532275 1.2161,2.399873 2.94212,7.307611 3.83555,10.906064 0.89346,3.598465 2.40887,11.947203 3.36764,18.552737 0.95873,6.605538 2.14762,19.718992 2.64197,29.141012 0.49437,9.42202 1.00476,17.23685 1.1342,17.36629 0.12944,0.12945 0.92364,-3.69715 1.76487,-8.50355 0.84123,-4.80639 2.42362,-12.42822 3.51643,-16.93736 1.09281,-4.50915 2.73661,-9.935627 3.65289,-12.058841 0.9163,-2.123214 2.69391,-4.881251 3.95028,-6.128991 1.25633,-1.24774 3.54445,-2.505026 5.08465,-2.79397 1.57267,-0.295048 4.66757,0.02908 7.05931,0.739395 2.89556,0.859887 5.39532,2.440827 7.80889,4.938631 1.9525,2.020631 4.61274,5.79707 5.91166,8.392116 1.2989,2.59502 4.57121,10.08956 7.27178,16.65454 l 4.91011,11.9363 6.14383,-0.19927 c 4.01304,-0.13016 7.69498,0.31531 10.61637,1.28444 3.30419,1.09611 5.81925,2.84818 9.62785,6.70699 3.63961,3.68763 5.62158,6.55289 6.74126,9.74563 1.15337,3.28889 1.49707,6.21361 1.26015,10.72329 -0.21985,4.18416 -0.96473,7.51028 -2.29029,10.22672 -1.08044,2.21419 -3.52136,5.6301 -5.42426,7.59092 -1.90292,1.96081 -5.62525,4.55647 -8.27187,5.76813 -3.75515,1.71916 -6.17541,2.20302 -11.01981,2.20302 -5.24498,0 -7.06923,-0.42407 -11.76176,-2.73419 -3.05463,-1.5038 -6.80252,-4.15629 -8.3286,-5.8944 -1.52609,-1.73813 -3.68164,-5.14118 -4.79008,-7.56236 -1.10847,-2.42118 -2.26814,-6.87823 -2.57706,-9.90457 -0.36107,-3.53689 -1.40111,-7.03459 -2.91163,-9.79171 -1.29245,-2.35912 -2.82419,-5.83346 -3.40388,-7.72076 -0.57968,-1.8873 -1.30442,-3.70924 -1.61053,-4.04877 -0.30613,-0.33952 -1.60309,10.86237 -2.88218,24.89309 -1.89896,20.83042 -2.72044,26.67129 -4.47792,31.83848 -1.18376,3.48043 -3.11875,7.97719 -4.29997,9.99277 -1.18121,2.01558 -3.69161,4.98626 -5.57865,6.6015 -1.88705,1.61525 -4.92634,3.38482 -6.754,3.9324 -1.82766,0.54758 -5.01539,0.98049 -7.08386,0.96202 -2.06846,-0.0185 -4.91896,-0.55202 -6.33445,-1.18568 z"
     id="path10" />
</svg>
