<svg xmlns="http://www.w3.org/2000/svg" xmlns:xlink="http://www.w3.org/1999/xlink" width="1543.317" height="419.691"><defs><linearGradient id="a"><stop offset="0" stop-color="#ff3232"/><stop offset="1" stop-color="#6e0051"/></linearGradient><linearGradient xlink:href="#a" id="b" x1=".341" x2="1543.659" y1="341.803" y2="341.803" gradientUnits="userSpaceOnUse"/></defs><path fill="url(#b)" d="m 6.2396395,550.25967 c -3.8800431,-1.6858 -6.64723132,-7.23789 -5.71739731,-11.4714 0.33471667,-1.52395 1.74639271,-3.83984 3.13705791,-5.14641 2.454792,-2.30635 3.1763897,-2.39496 24.7597369,-3.0407 36.297027,-1.08593 60.140128,-4.01033 84.271143,-10.33598 36.28092,-9.5106 61.60422,-25.24394 80.23483,-49.8498 9.27414,-12.24857 16.27312,-25.06291 27.70568,-50.72596 18.99276,-42.6337 28.51083,-58.50849 45.04438,-75.12761 19.67738,-19.77922 43.96671,-32.51618 76.89003,-40.31995 9.91514,-2.35017 34.82635,-6.20774 43.36013,-6.71444 2.70612,-0.16068 4.68231,-0.83821 5.13678,-1.76114 0.40624,-0.825 1.75662,-3.84141 3.00083,-6.70313 8.8184,-20.28259 36.34553,-25.27143 51.76596,-9.38173 5.43756,5.60303 8.37411,12.21129 8.95853,20.15982 1.00283,13.63918 -5.19988,24.80537 -17.17123,30.91188 -6.07287,3.09773 -7.68678,3.48281 -14.46236,3.45065 -11.12625,-0.0528 -21.32035,-5.16071 -26.26426,-13.16011 l -2.16863,-3.50892 -8.09689,0.67952 c -28.13077,2.36081 -54.55421,8.81027 -74.10368,18.0873 -24.78372,11.76089 -43.99912,31.67071 -58.61868,60.7371 -2.70337,5.3748 -8.54826,17.9748 -12.98865,28 -17.51559,39.54551 -27.02986,54.99998 -44.81946,72.80233 -33.13143,33.15516 -79.57309,49.20141 -153.156738,52.91781 -25.780631,1.30207 -32.770288,1.207 -36.6971125,-0.49913 z M 926.02707,483.67481 c -10.94602,-2.12193 -23.1289,-10.42172 -30.03817,-20.46401 -5.98255,-8.69533 -7.33477,-14.22044 -7.75699,-31.69452 l -0.38056,-15.75 h 4.37776 c 11.02055,0 23.63146,-5.75319 31.36247,-14.30779 22.74136,-25.164 8.08287,-65.43868 -25.72145,-70.67057 -3.66132,-0.56666 -7.37382,-0.7552 -8.25,-0.41898 -1.41261,0.54207 -1.59306,-1.0433 -1.59306,-13.99567 v -14.60699 h 120.50003 120.5 v 14.60699 c 0,12.79065 -0.193,14.53293 -1.552,14.01143 -3.0244,-1.16057 -14.8461,1.30303 -21.154,4.40839 -16.5935,8.16892 -26.416,26.96653 -23.3354,44.65713 2.2352,12.83547 9.4865,23.62308 20.1816,30.02372 6.0582,3.62561 15.1996,6.29234 21.5699,6.29234 h 4.2899 l -0.012,13.75 c -0.013,14.99632 -1.1489,21.08621 -5.5595,29.80354 -5.7461,11.35704 -20.2949,22.03341 -33.3151,24.44767 -6.6915,1.24076 -157.67476,1.1555 -164.11353,-0.0927 z M 806.00233,438.51628 c -6.72879,-3.40334 -9.70557,-8.50499 -10.94048,-18.75 -0.56351,-4.675 -1.4634,-26.05 -1.99976,-47.5 -1.05225,-42.08182 -1.81353,-58.33144 -2.98091,-63.62784 -0.71391,-3.239 -0.76934,-3.15498 -1.40367,2.12784 -0.36322,3.025 -1.80028,18.325 -3.19346,34 -3.5776,40.25255 -6.25002,63.78524 -8.01163,70.54852 -2.97045,11.40432 -7.63462,18.94664 -13.63567,22.0499 -3.85926,1.9957 -14.74293,2.00458 -18.59003,0.0152 -4.58435,-2.37065 -9.23286,-8.36493 -13.42601,-17.31287 -6.47498,-13.81724 -7.52981,-19.83673 -8.74122,-49.88272 -0.59381,-14.72821 -1.23907,-26.93798 -1.43391,-27.13281 -0.19483,-0.19483 -0.6761,3.33556 -1.06949,7.84532 -0.9288,10.64751 -3.79643,21.80682 -7.60469,29.59344 -3.39624,6.94417 -11.64236,16.55143 -16.25284,18.9356 -4.51165,2.33306 -10.18324,1.21834 -14.40174,-2.83061 -7.04955,-6.7662 -10.94109,-17.91931 -14.7694,-42.32893 -1.38016,-8.8 -2.71745,-16.9 -2.97175,-18 -0.41258,-1.78469 -1.30133,-2.0045 -8.25548,-2.04178 -6.21856,-0.0333 -8.90437,-0.56125 -13.29312,-2.6128 -6.60848,-3.08919 -12.26176,-8.56748 -15.83558,-15.34542 -2.25177,-4.2706 -2.63546,-6.23997 -2.6302,-13.5 0.008,-10.98875 2.56847,-17.06528 10.08604,-23.93591 15.92678,-14.55618 40.93089,-9.84197 50.45683,9.513 2.18961,4.44888 2.44125,6.31913 2.61336,19.42291 0.10475,7.975 0.81695,17.425 1.58267,21 1.353,6.3169 1.41175,6.40141 2.08536,3 0.38123,-1.925 2.26271,-16.97486 4.18106,-33.44413 1.91836,-16.46927 3.96619,-31.72027 4.55073,-33.89113 2.36658,-8.78877 8.79024,-15.51687 16.86772,-17.66711 15.34933,-4.08603 27.81026,8.20531 30.03844,29.62963 0.50753,4.88001 1.67496,24.39774 2.59428,43.37274 0.91932,18.975 1.97819,35.33688 2.35305,36.35973 0.37486,1.02285 1.46546,-7.07715 2.42355,-18 5.97887,-68.16284 7.81876,-77.16609 18.23803,-89.24556 11.77236,-13.64817 30.31906,-9.64991 38.84588,8.3743 5.63509,11.9116 10.28379,40.38104 11.23007,68.77489 0.34393,10.31985 0.82479,18.5639 1.06858,18.3201 0.24379,-0.24379 1.72454,-6.89661 3.29056,-14.78404 4.01423,-20.21817 7.24384,-29.89813 11.47036,-34.37954 3.3933,-3.59794 3.54998,-3.649 9.94783,-3.24162 5.1974,0.33095 7.35379,1.01381 10.75888,3.40699 6.03025,4.23823 8.92123,9.06207 17.09122,28.51815 l 7.19128,17.12535 8.5,0.14001 c 10.13477,0.16693 16.00259,2.5812 22.80388,9.38249 15.42412,15.42412 10.63816,41.97438 -9.26351,51.38956 -4.87065,2.30424 -7.40983,2.85776 -13.11223,2.8584 -9.27195,10e-4 -15.28171,-2.16295 -21.47766,-7.73364 -6.56289,-5.9006 -10.06556,-12.82912 -10.74084,-21.24608 -0.3813,-4.75282 -1.3999,-8.14539 -3.7589,-12.51949 -1.77973,-3.3 -3.77906,-7.71765 -4.44297,-9.817 -0.6639,-2.09935 -1.35314,-3.67096 -1.53164,-3.49246 -0.1785,0.1785 -1.5258,13.14383 -2.994,28.81186 -2.87211,30.65001 -4.54604,38.44339 -10.45698,48.68477 -6.74565,11.68761 -20.28035,16.50992 -31.04989,11.06283 z m -353.53686,-26.7846 c -8.31171,-2.63583 -17.45465,-8.7797 -22.42749,-15.07081 -8.74774,-11.06673 -11.01091,-18.93658 -11.01091,-38.28893 v -13.60566 h 5.84345 c 19.27229,0 36.95591,-15.86572 40.3215,-36.17641 3.91945,-23.65312 -14.77334,-47.07201 -38.80347,-48.61417 l -7.36148,-0.47243 v -13.8685 -13.86849 h 120.5 120.5 v 13.86849 13.8685 l -7.50439,0.4816 c -23.95746,1.53749 -42.22241,24.72346 -38.44135,48.79838 3.1383,19.98228 21.10947,35.98303 40.41419,35.98303 h 5.53155 v 14.3185 c 0,15.36725 -1.05006,20.89043 -5.72786,30.12784 -3.21311,6.34503 -12.48077,15.61269 -18.8258,18.8258 -11.68443,5.91697 -8.55689,5.73292 -96.37784,5.67169 -76.6264,-0.0534 -80.86509,-0.15022 -86.6301,-1.97843 z m 659.06163,-9.81544 c -19.9936,-9.49184 -24.7782,-35.92436 -9.3039,-51.39871 6.9127,-6.91271 12.6771,-9.25125 22.8039,-9.25125 7.2897,0 9.3137,0.39956 14.2144,2.80615 6.883,3.37999 13.1743,10.20439 15.5352,16.85155 2.0384,5.73936 1.3946,5.64337 22.2504,3.31751 52.9745,-5.90777 88.1382,-19.73137 112.8269,-44.35467 15.7504,-15.70862 24.9788,-31.21363 43.6433,-73.32698 15.0523,-33.96299 25.1752,-50.28681 41.1257,-66.31791 30.4544,-30.60819 73.2375,-44.89002 143.9082,-48.03938 17.9341,-0.79921 21.5831,0.13477 24.1047,6.16977 1.8048,4.31952 1.2722,7.25819 -2.006,11.06939 l -2.383,2.77035 -18.8599,0.72872 c -22.9232,0.88572 -35.6848,2.18374 -53.1938,5.41049 -34.2675,6.31517 -59.4853,18.62957 -78.4596,38.31347 -13.8224,14.33934 -22.2918,28.62709 -37.7014,63.60154 -17.012,38.61158 -28.0235,56.62364 -44.9376,73.50731 -22.8892,22.84797 -50.8892,36.94038 -90.3316,45.4639 -12.3723,2.67365 -35.8699,5.89188 -51.5164,7.05566 -8.8186,0.65592 -9.3515,0.8277 -10.7084,3.45166 -2.2633,4.37679 -10.7302,11.36049 -16.0961,13.27642 -7.8102,2.78869 -17.6308,2.35314 -24.915,-1.10499 z M 888.28175,284.51628 c 0.73435,-11.29045 3.60332,-18.40251 10.37326,-25.71485 6.16986,-6.66418 11.06429,-9.83034 20.41023,-13.20316 l 6.46183,-2.33199 h 82.00003 c 88.0976,0 86.1025,-0.1075 97.4475,5.25067 6.5307,3.08444 14.9774,10.73906 18.5192,16.7827 3.2752,5.58868 5.5333,14.43488 5.5333,21.67673 v 5.7899 h -120.641 -120.64094 z m 203.07605,-5.79549 c 6.2542,-4.91954 4.8856,-14.63858 -2.5748,-18.28403 -7.2686,-3.5518 -14.7559,1.54324 -14.7559,10.0413 0,6.28464 4.0036,10.28822 10.2882,10.28822 2.9608,0 5.3092,-0.6821 7.0425,-2.04549 z m -96.53073,-6.15451 c 1.94599,-1.94599 1.39876,-4.71347 -1.05,-5.31009 -1.2375,-0.30151 -17.54396,-0.42258 -36.23658,-0.26905 -31.79428,0.26113 -34.00891,0.39512 -34.33258,2.07718 -0.88375,4.59265 -0.0412,4.70196 36.2416,4.70196 25.24921,0 34.49104,-0.31348 35.37756,-1.2 z m -575.53951,-58.55 c 1.30276,-18.48206 11.39765,-31.7569 29.27864,-38.50157 l 5.96087,-2.24843 82.48214,-0.27271 c 55.03379,-0.18195 84.1736,0.0784 87.56499,0.78249 13.47947,2.79833 25.2064,11.66586 31.04166,23.4727 3.04524,6.16162 3.70578,8.69165 4.15685,15.92162 l 0.53627,8.5959 H 539.52513 418.74128 Z m 203.8147,-6.82204 c 3.45273,-3.30793 4.33395,-6.65821 2.89674,-11.01301 -2.12799,-6.44789 -8.97212,-9.19451 -15.49987,-6.22027 -3.16413,1.44168 -5.47206,5.58402 -5.47206,9.8214 0,9.52249 11.11492,14.08025 18.07519,7.41188 z m -38.38466,-6.06388 c 0.34527,-0.89976 0.16966,-2.36226 -0.39025,-3.25 -0.91636,-1.4529 -7.27846,-1.6398 -63.71081,-1.87161 -42.07833,-0.17285 -63.33345,0.0853 -64.64114,0.78518 -1.90135,1.01758 -2.6151,3.97225 -1.28166,5.30568 0.36666,0.36667 29.63079,0.66667 65.03138,0.66667 58.66741,0 64.42029,-0.14481 64.99248,-1.63592 z" transform="translate(-.341 -131.958)"/></svg>
