<svg xmlns="http://www.w3.org/2000/svg" xml:space="preserve" width="1543.898" height="419.598" viewBox="0 0 408.49 111.019"><g fill="#fff" stroke="#fff"><g stroke="none" paint-order="markers stroke fill" transform="translate(-24.621 99.324)"><path d="m 148.12506,-88.631724 c -7.03957,4.03e-4 -12.74656,4.64808 -12.74806,11.687659 v 1.540991 h 32.00012 v 5.17e-4 h 32.00063 v -1.540992 c -0.001,-7.039579 -5.7085,-11.687254 -12.74806,-11.687658 h -19.25206 v -5.17e-4 z m 39.37486,4.369242 a 2.8497324,2.8497324 0 0 1 2.84996,2.849956 2.8497324,2.8497324 0 0 1 -2.84996,2.849438 2.8497324,2.8497324 0 0 1 -2.84995,-2.849438 2.8497324,2.8497324 0 0 1 2.84995,-2.849956 z m -41.90959,2.022099 h 22.07204 10.91045 c 0.4532,-3.82e-4 0.821,0.366902 0.82062,0.820105 v 0.01602 c -7e-4,0.452439 -0.36818,0.818419 -0.82062,0.818038 h -32.98249 c -0.45167,-6.96e-4 -0.81734,-0.366361 -0.81803,-0.818038 v -0.01602 c -3.9e-4,-0.45244 0.36559,-0.819408 0.81803,-0.820105 z m -10.21333,9.218559 v 7.604187 c 0.38611,-0.04003 0.77403,-0.06004 1.16221,-0.05994 6.2083,3.9e-5 11.24113,5.032867 11.24117,11.241177 -3e-5,6.20832 -5.03287,11.24114 -11.24117,11.24118 -0.38831,-0.002 -0.77623,-0.0251 -1.16221,-0.0677 v 5.68336 c 4.1e-4,7.04035 5.70773,12.74766 12.74806,12.74806 h 19.25206 v 5.2e-4 h 19.25257 c 7.04032,-4e-4 12.74765,-5.70774 12.74806,-12.74806 v -5.68337 c -0.38597,0.0426 -0.7739,0.0652 -1.16221,0.0677 -6.20829,-2e-5 -11.24113,-5.03288 -11.24117,-11.24116 4e-5,-6.2083 5.03288,-11.24114 11.24117,-11.24118 0.38818,-9.8e-5 0.7761,0.01991 1.16221,0.05994 v -7.604197 h -32.00012 v -5.17e-4 z" color="#000" style="-inkscape-stroke:none"/><circle cx="198.216" cy="-54.236" r="8.599"/><circle cx="-136.539" cy="-54.236" r="8.599" transform="scale(-1 1)"/></g><g stroke="none" paint-order="markers stroke fill" transform="translate(99.436 117.99)"><path d="m 148.12506,-88.631724 c -7.03957,4.03e-4 -12.74656,4.64808 -12.74806,11.687659 v 1.540991 h 32.00012 v 5.17e-4 h 32.00063 v -1.540992 c -0.001,-7.039579 -5.7085,-11.687254 -12.74806,-11.687658 h -19.25206 v -5.17e-4 z m 39.37486,4.369242 c 1.57404,-1.26e-4 2.85008,1.275916 2.84996,2.849956 -1.6e-4,1.573838 -1.27612,2.849564 -2.84996,2.849438 -1.57383,1.2e-4 -2.84979,-1.275604 -2.84995,-2.849438 -1.2e-4,-1.574036 1.27591,-2.850076 2.84995,-2.849956 z m -41.90959,2.022099 h 13.07621 4.56045 c 0.4532,-3.82e-4 0.82062,0.366902 0.82062,0.820105 v 0.01602 c 0,0.45244 -0.36818,0.818419 -0.82062,0.818038 h -17.63666 c -0.45167,-6.96e-4 -0.81734,-0.366361 -0.81803,-0.818038 v -0.01602 c -3.9e-4,-0.45244 0.36559,-0.819408 0.81803,-0.820105 z m -10.21333,9.218559 v 7.604187 c 0.38611,-0.04003 0.77403,-0.06004 1.16221,-0.05994 6.2083,3.9e-5 11.24113,5.032867 11.24117,11.241177 -3e-5,6.20832 -5.03287,11.24114 -11.24117,11.24118 -0.38831,-0.002 -0.77623,-0.0251 -1.16221,-0.0677 v 5.68336 c 4.1e-4,7.04035 5.70773,12.74766 12.74806,12.74806 h 19.25206 v 5.2e-4 h 19.25257 c 7.04032,-4e-4 12.74765,-5.70774 12.74806,-12.74806 v -5.68337 c -0.38597,0.0426 -0.7739,0.0652 -1.16221,0.0677 -6.20829,-2e-5 -11.24113,-5.03288 -11.24117,-11.24116 4e-5,-6.2083 5.03288,-11.24114 11.24117,-11.24118 0.38818,-9.8e-5 0.7761,0.01991 1.16221,0.05994 v -7.604197 h -32.00012 v -5.17e-4 z" color="#000" style="-inkscape-stroke:none"/><circle cx="198.216" cy="-54.236" r="8.599"/><circle cx="-136.539" cy="-54.236" r="8.599" transform="scale(-1 1)"/></g><path stroke-width="4.776" d="m 100.07881,139.79313 c -1.916841,-1.16898 -4.254289,-7.0115 -4.311771,-10.09195 -0.375562,-20.12632 -2.227159,-31.73459 -2.772938,-31.62948 -6.930376,2.5066 2.509927,23.43192 -7.463387,31.6538 -1.865934,1.49256 -3.869706,-4.58106 -4.162723,-6.92858 -0.471032,-3.7737 -2.029168,-11.54961 -2.295156,-14.68536 -6.546728,-0.507 -4.266316,-5.92891 0.595575,-3.56124 1.775244,0.90664 2.95922,15.47998 4.389053,19.64454 1.054192,3.07046 0.983255,1.339 1.412002,1.27783 0.542062,-0.0774 2.434155,-16.83745 2.926094,-21.03557 0.750219,-6.402233 0.689555,-8.07158 2.038001,-9.565891 0.82316,-0.912181 1.5206,-1.228931 2.705961,-1.228931 1.848999,0 2.921498,1.137571 4.016779,4.260512 0.52266,1.49027 0.91426,23.92611 2.222949,30.84604 0.907241,4.79729 1.666771,7.043 2.201261,6.50851 0.56753,-0.56753 2.2614,-18.6379 2.89381,-26.2117 1.01627,-12.17106 1.81661,-13.36872 3.80672,-15.635344 0.74534,-0.848886 1.3662,-1.139925 2.43175,-1.139925 1.17529,0 1.88223,0.316109 2.67721,1.197119 1.80004,1.99484 2.59919,5.03941 3.65321,13.91795 0.85638,7.21355 0.33574,28.89235 0.95485,28.89235 0.46551,0 0.98256,-1.36248 1.95582,-5.15371 1.56103,-6.08092 3.54781,-25.49241 5.9632,-25.49241 1.1741,0 2.08622,0.41624 2.87112,1.31019 0.64665,0.7365 0.85829,1.12836 1.98227,3.67036 2.30314,5.41645 4.58296,12.07019 6.12368,12.09818 h 4.2238 v 1.85562 1.85562 l -4.87724,-0.0541 -4.05157,-3.03479 c -2.90429,-2.49994 -3.0786,-7.42287 -4.55864,-10.67078 -0.62868,-1.305 -1.21745,-2.46688 -1.3084,-2.58197 -0.34558,-0.4373 -0.64562,0.0252 -1.08405,1.6711 -0.24933,0.93597 -1.78594,20.73461 -2.12119,22.00716 -1.26082,4.78598 -2.84048,6.73772 -5.4532,6.73772 -1.23511,0 -1.94969,-0.38606 -2.63705,-1.42474 -1.21153,-1.83073 -0.71441,-23.34273 -1.58924,-30.66472 -0.81574,-6.82736 -1.01788,-8.00528 -1.77868,-10.36487 -0.6799,-2.10866 -1.14938,-1.94063 -1.79906,0.64388 -0.739,2.93981 -1.06524,2.94537 -1.78411,11.85408 -0.42586,5.27768 -1.9583,22.54062 -2.54998,24.78459 -0.6392,2.42423 -1.52562,4.00013 -2.54709,4.52837 -0.71474,0.36959 -2.24764,0.33819 -2.89964,-0.0594 z" transform="translate(98.027 -61.13)"/></g><path fill="none" stroke="#fff" stroke-linecap="round" stroke-width="5.605" d="M14.335753 107.26359c-77.817729.0398-23.1897387 62.72711-109.560386 62.07747M307.66031 63.932275c-77.81773.0398-23.18974 62.727095-109.56038 62.077455" transform="translate(98.027 -61.13)"/></svg>
