<?xml version="1.0" encoding="UTF-8" standalone="no"?>
<svg
   width="1024"
   height="1024"
   version="1.1"
   id="svg716"
   sodipodi:docname="icon_console.svg"
   xml:space="preserve"
   inkscape:version="1.2.2 (b0a8486541, 2022-12-01)"
   xmlns:inkscape="http://www.inkscape.org/namespaces/inkscape"
   xmlns:sodipodi="http://sodipodi.sourceforge.net/DTD/sodipodi-0.dtd"
   xmlns:xlink="http://www.w3.org/1999/xlink"
   xmlns="http://www.w3.org/2000/svg"
   xmlns:svg="http://www.w3.org/2000/svg"><defs
     id="defs720"><linearGradient
       id="a"><stop
         offset="0"
         stop-color="#c21d3f"
         id="stop2" /><stop
         offset="1"
         stop-color="#aa1544"
         id="stop4" /></linearGradient><linearGradient
       xlink:href="#a"
       id="b"
       x1="2.292"
       x2="300.708"
       y1="151.5"
       y2="151.5"
       gradientTransform="matrix(3.4314399,0,0,3.4314399,-7.8639564,-7.8639695)"
       gradientUnits="userSpaceOnUse" /></defs><sodipodi:namedview
     id="namedview718"
     pagecolor="#ffffff"
     bordercolor="#666666"
     borderopacity="1.0"
     inkscape:showpageshadow="2"
     inkscape:pageopacity="0.0"
     inkscape:pagecheckerboard="0"
     inkscape:deskcolor="#d1d1d1"
     showgrid="false"
     inkscape:zoom="0.23046875"
     inkscape:cx="503.32203"
     inkscape:cy="512"
     inkscape:window-width="1295"
     inkscape:window-height="700"
     inkscape:window-x="0"
     inkscape:window-y="29"
     inkscape:window-maximized="1"
     inkscape:current-layer="svg716" /><path
     fill="url(#b)"
     d="m 624.51415,848.58071 c -5.66184,-2.53464 -15.33856,-9.90904 -21.5038,-16.38756 -6.16524,-6.47856 -12.745,-17.08356 -14.62168,-23.56672 -1.87668,-6.48316 -4.85648,-33.40572 -6.62196,-59.82788 -1.76532,-26.42212 -4.136,-92.82064 -5.26804,-147.55224 -1.13208,-54.73158 -3.63044,-124.21842 -5.55196,-154.41517 -1.92156,-30.19672 -4.68288,-56.1146 -6.13624,-57.59524 -1.45332,-1.48064 -5.29916,28.63028 -8.54616,66.91324 -3.24712,38.28291 -10.52692,115.92986 -16.17736,172.54873 -5.65044,56.61888 -12.45636,113.48728 -15.12416,126.37424 -2.66776,12.88696 -8.85608,32.18884 -13.75176,42.89312 -4.89568,10.70424 -13.0604,23.84656 -18.14376,29.20512 -5.08336,5.35856 -13.10284,11.70072 -17.82108,14.0936 -4.7182,2.39292 -13.65088,5.31552 -19.8504,6.49472 -6.19948,1.17916 -18.6702,0.55724 -27.7126,-1.38204 -11.21732,-2.40568 -20.48159,-7.45076 -29.1592,-15.87924 -6.99508,-6.79432 -18.1012,-21.9788 -24.68028,-33.74324 -6.57904,-11.76448 -15.67712,-32.31308 -20.21796,-45.66364 -4.5408,-13.35052 -9.81764,-35.5414 -11.72624,-49.31304 -1.9086,-13.77164 -4.4496,-61.271 -5.6466,-105.55428 -1.197,-44.28326 -3.37132,-82.65026 -4.83188,-85.26014 -1.47172,-2.62976 -3.59944,11.08208 -4.77304,30.759 -1.16468,19.52732 -5.36968,47.08522 -9.34452,61.23994 -3.97476,14.15472 -11.8358,35.11884 -17.46895,46.5868 -5.6332,11.46804 -17.26612,28.88036 -25.85096,38.69416 -8.58488,9.81376 -20.00936,20.11876 -25.38764,22.90004 -5.37836,2.78124 -14.874,5.05104 -21.10144,5.044 -6.2274,-0.004 -16.27932,-3.03508 -22.33748,-6.72892 -6.05816,-3.69392 -14.92524,-12.62512 -19.7046,-19.84716 -4.77928,-7.22208 -13.16824,-25.42616 -18.64204,-40.45348 -5.4738,-15.02732 -13.24644,-48.16848 -17.27252,-73.64703 -4.02604,-25.47843 -8.91748,-55.58943 -10.86988,-66.91319 -3.5498,-20.58872 -3.5498,-20.58872 -31.65192,-20.58872 -23.7838,0 -31.08684,-1.46568 -47.525959,-9.53868 C 48.806961,473.22357 34.590443,462.8701 27.897803,455.46218 21.205163,448.05426 12.192443,435.36098 7.8695231,427.25498 1.2658832,414.8723 0.00808325,407.3063 1.2326868e-4,379.9179 -0.01187675,350.1833 0.88548322,345.70354 10.175683,328.93066 c 5.6018,-10.11368 16.20064,-23.53756 23.55304,-29.83096 7.352359,-6.29336 20.526878,-14.90496 29.276638,-19.13692 12.252439,-5.92612 22.217559,-7.73852 43.360159,-7.88632 21.04752,-0.1472 31.15188,1.5124 43.31316,7.1136 8.72384,4.01804 22.20144,13.03316 29.95024,20.03372 7.74876,7.0006 17.17612,17.72388 20.94964,23.8296 3.77352,6.10564 9.36416,20.87232 12.42372,32.8148 4.59252,17.92644 4.88428,25.16196 1.67292,41.48524 -3.13748,15.94752 -2.83364,26.29488 1.57096,53.49768 3.00344,18.54928 6.8132,36.81427 8.46608,40.58883 2.09436,4.7828 3.0756,5.26876 3.23748,1.60332 0.1276,-2.89276 6.41208,-57.49471 13.9652,-121.33771 10.27948,-86.88756 15.5012,-120.08168 20.76444,-131.9984 3.86732,-8.75608 11.97092,-21.1272 18.00796,-27.49144 6.03704,-6.36412 17.15304,-14.437 24.70219,-17.93968 7.54924,-3.50268 19.13032,-6.3938 25.73592,-6.42472 6.60552,-0.032 17.84276,1.56356 24.97172,3.5432 7.12896,1.9798 18.29228,8.27988 24.80752,14.00028 6.5152,5.72037 16.56152,19.97984 22.32525,31.68756 5.76372,11.70776 11.90915,31.26352 13.65663,43.45736 1.74744,12.19384 5.58588,72.35552 8.52968,133.69268 2.94388,61.33711 6.31172,122.75783 7.48408,136.49047 1.17232,13.7326 2.78776,24.31219 3.58984,23.51011 0.80204,-0.80204 5.95796,-50.64159 11.4578,-110.75458 5.49976,-60.11296 11.74724,-123.19368 13.88344,-140.1794 2.1362,-16.98568 6.70536,-41.95316 10.15372,-55.48332 3.44836,-13.5302 9.59644,-31.12124 13.66244,-39.09116 4.06592,-7.97 14.58412,-22.21356 23.37368,-31.65236 8.78948,-9.4388 20.94984,-19.25648 27.02296,-21.81704 6.07312,-2.56052 18.42628,-4.62164 27.4516,-4.5802 9.02528,0.0416 22.5994,2.88736 30.16484,6.32424 7.56536,3.43684 18.76332,11.95276 24.88436,18.92424 6.121,6.97148 15.10916,20.52956 19.9736,30.12912 4.8644,9.59948 11.76848,29.23044 15.3422,43.62424 3.57384,14.39384 9.63548,47.7888 13.47056,74.21096 3.83492,26.42212 8.59048,78.87596 10.56788,116.56404 1.97748,37.68807 4.01904,68.94739 4.5368,69.46515 0.51776,0.5178 3.69455,-14.7886 7.05947,-34.0142 3.36492,-19.22556 9.69448,-49.71287 14.06572,-67.74943 4.37124,-18.0366 10.94644,-39.74252 14.61156,-48.23536 3.6652,-8.49288 10.77564,-19.525 15.80112,-24.51596 5.02532,-4.99096 14.1778,-10.02012 20.3386,-11.17588 6.29068,-1.1802 18.67028,0.1164 28.23724,2.95756 11.58224,3.43956 21.58128,9.76332 31.23556,19.75452 7.81,8.08252 18.45096,23.18828 23.64664,33.56848 5.1956,10.38008 18.28484,40.35824 29.08712,66.61816 l 19.64044,47.74519 24.57532,-0.79708 c 16.05216,-0.52064 30.77992,1.26124 42.46548,5.13776 13.21675,4.38444 23.27699,11.39272 38.51139,26.82796 14.55841,14.75052 22.48631,26.21155 26.96501,38.9825 4.6135,13.15556 5.9883,24.85444 5.0406,42.89316 -0.8794,16.73664 -3.8589,30.04112 -9.1611,40.90688 -4.3218,8.85676 -14.0855,22.5204 -21.69707,30.36368 -7.61168,7.84324 -22.501,18.22588 -33.08748,23.07252 -15.02059,6.87664 -24.70163,8.81208 -44.07923,8.81208 -20.97992,0 -28.27692,-1.69628 -47.04704,-10.93676 -12.21852,-6.0152 -27.21008,-16.62516 -33.3144,-23.5776 -6.10436,-6.95252 -14.72656,-20.56472 -19.16032,-30.24944 -4.43388,-9.68472 -9.07256,-27.51292 -10.30824,-39.61828 -1.44428,-14.14756 -5.60444,-28.13836 -11.64652,-39.16684 -5.1698,-9.43647 -11.29676,-23.33382 -13.61552,-30.88302 -2.31872,-7.5492 -5.21768,-14.83696 -6.44212,-16.19508 -1.22452,-1.35808 -6.41236,43.44946 -11.52872,99.57234 -7.59584,83.32168 -10.88176,106.68516 -17.91168,127.35392 -4.73504,13.92172 -12.475,31.90876 -17.19988,39.97108 -4.72484,8.06232 -14.76644,19.94504 -22.3146,26.406 -7.5482,6.461 -19.70536,13.53928 -27.01599,15.7296 -7.31064,2.19032 -20.06156,3.92196 -28.33544,3.84808 -8.27384,-0.074 -19.67584,-2.20808 -25.3378,-4.74272 z"
     id="path10"
     style="fill:url(#b);stroke-width:4" /><rect
     width="430"
     height="330"
     x="550"
     y="650"
     fill="#414042"
     stroke="#fff"
     stroke-width="20"
     rx="20"
     id="rect712" /><path
     fill="#fff"
     d="M590 750a10 10 0 0 0 0 14.142l70 70-70 70a10 10 0 0 0 0 14.142l20 20a10 10 0 0 0 14.142 0l97.071-97.071a10 10 0 0 0 0-14.142L624.142 730A10 10 0 0 0 610 730zm180 145a10 10 0 0 0-10 10v25a10 10 0 0 0 10 10h160a10 10 0 0 0 10-10v-25a10 10 0 0 0-10-10z"
     id="path714" /></svg>
